#!OML:ASF I:\Actors\actors\Patient Classification 2\Patient 1\Session 1\actor1.ASF
:FULLY-SPECIFIED
:DEGREES
340
root -0.536482 18.6628 5.33911 -2.6206 2.50341 -0.880939
lowerback 12.0186 -2.10264 1.69453
upperback 3.88558 -2.53301 1.31136
thorax -2.67888 -1.25895 0.765778
lowerneck -9.29218 -4.80708 -4.54772
upperneck 41.2551 -7.35298 2.46837
head 16.7695 -3.46004 0.704205
rclavicle -7.90169e-015 -6.36111e-015
rhumerus -75.6476 45.4063 -106.193
rradius 107.276
rwrist -28.0636
rhand 14.3334 -56.5868
rfingers 7.12502
rthumb 39.2239 -442.042
lclavicle -7.90169e-015 -6.36111e-015
lhumerus -56.7248 -60.8977 128.873
lradius 89.7614
lwrist 38.1978
lhand 19.0878 4.25256
lfingers 7.12502
lthumb 43.6844 28.2522
rfemur 0 0 0
rtibia 0
rfoot 0 0
rtoes 0
lfemur -3.56199 -4.55922 -13.6754
ltibia 22.886
lfoot -19.3622 8.41851
ltoes -56.3079
341
root -0.534312 18.6619 5.3357 -2.70143 2.5428 -0.818857
lowerback 12.1601 -2.11945 1.66734
upperback 3.89971 -2.55522 1.28807
thorax -2.74106 -1.26985 0.76531
lowerneck -9.28845 -4.80131 -4.55413
upperneck 41.2679 -7.33423 2.44716
head 16.7737 -3.45599 0.699151
rclavicle -1.3418e-014 -3.18055e-015
rhumerus -75.7937 45.3533 -105.95
rradius 107.454
rwrist -28.3695
rhand 14.6084 -55.7246
rfingers 7.12502
rthumb 39.4829 -441.105
lclavicle -1.3418e-014 -3.18055e-015
lhumerus -56.7445 -60.9271 128.919
lradius 89.7152
lwrist 38.1367
lhand 19.0518 3.98031
lfingers 7.12502
lthumb 43.6508 27.9922
rfemur 0 0 0
rtibia 0
rfoot 0 0
rtoes 0
lfemur -3.4693 -4.58457 -13.7657
ltibia 22.8371
lfoot -19.3134 8.42573
ltoes -56.3165
342
root -0.529156 18.6604 5.33012 -2.84512 2.66002 -0.83386
lowerback 12.3952 -2.19161 1.76486
upperback 3.92094 -2.63216 1.28193
thorax -2.85127 -1.30774 0.724485
lowerneck -9.31083 -4.7847 -4.59548
upperneck 41.2872 -7.29509 2.43972
head 16.7899 -3.44678 0.708974
rclavicle -2.31087e-014 3.97569e-015
rhumerus -75.908 45.3203 -105.71
rradius 107.592
rwrist -28.6287
rhand 14.9767 -54.8947
rfingers 7.12502
rthumb 39.8297 -440.172
lclavicle -2.31087e-014 3.97569e-015
lhumerus -56.6657 -60.9165 128.89
lradius 89.6633
lwrist 38.1412
lhand 18.8876 3.90548
lfingers 7.12502
lthumb 43.4974 27.9733
rfemur 0 0 0
rtibia 0
rfoot 0 0
rtoes 0
lfemur -3.34419 -4.69059 -13.7962
ltibia 22.8045
lfoot -19.2793 8.43037
ltoes -56.3377
343
root -0.527994 18.6604 5.32812 -2.8721 2.74518 -0.814839
lowerback 12.46 -2.24852 1.78977
upperback 3.92387 -2.70288 1.26406
thorax -2.88558 -1.34268 0.705025
lowerneck -9.31551 -4.76938 -4.62871
upperneck 41.2886 -7.25674 2.42452
head 16.7907 -3.43843 0.71428
rclavicle -2.27111e-014 7.15625e-015
rhumerus -75.9777 45.2739 -105.5
rradius 107.697
rwrist -28.8118
rhand 15.5983 -54.4274
rfingers 7.12502
rthumb 40.4145 -439.527
lclavicle -2.27111e-014 7.15625e-015
lhumerus -56.5649 -60.8424 128.781
lradius 89.6427
lwrist 38.225
lhand 18.7817 3.96997
lfingers 7.12502
lthumb 43.3985 28.0736
rfemur 0 0 0
rtibia 0
rfoot 0 0
rtoes 0
lfemur -3.34335 -4.74524 -13.832
ltibia 22.8166
lfoot -19.283 8.39033
ltoes -56.3768
344
root -0.528949 18.6618 5.32765 -2.83047 2.79079 -0.834776
lowerback 12.4254 -2.28315 1.84646
upperback 3.91553 -2.74346 1.23983
thorax -2.87933 -1.3627 0.652854
lowerneck -9.30476 -4.76206 -4.60964
upperneck 41.2775 -7.23994 2.39871
head 16.7781 -3.43269 0.702509
rclavicle -1.92821e-014 2.3059e-014
rhumerus -75.9506 45.1807 -105.359
rradius 107.703
rwrist -29.0713
rhand 16.1063 -54.2131
rfingers 7.12502
rthumb 40.892 -439.164
lclavicle -1.92821e-014 2.3059e-014
lhumerus -56.5943 -60.7953 128.741
lradius 89.6627
lwrist 38.4271
lhand 18.6123 4.10711
lfingers 7.12502
lthumb 43.2402 28.2676
rfemur 0 0 0
rtibia 0
rfoot 0 0
rtoes 0
lfemur -3.41133 -4.75996 -13.8052
ltibia 22.8379
lfoot -19.2631 8.37711
ltoes -56.469
345
root -0.527611 18.6627 5.32367 -2.85616 2.82546 -0.873159
lowerback 12.5211 -2.32003 1.93975
upperback 3.89996 -2.77808 1.21904
thorax -2.95308 -1.37984 0.588689
lowerneck -9.28631 -4.76638 -4.55878
upperneck 41.2719 -7.24147 2.34976
head 16.7645 -3.4328 0.671926
rclavicle 1.54058e-014 1.23246e-014
rhumerus -75.8835 45.128 -105.317
rradius 107.615
rwrist -29.3934
rhand 16.2541 -54.1199
rfingers 7.12502
rthumb 41.0308 -439.026
lclavicle 1.54058e-014 1.23246e-014
lhumerus -56.7135 -60.7514 128.797
lradius 89.6686
lwrist 38.6182
lhand 18.2071 4.30784
lfingers 7.12502
lthumb 42.8614 28.6026
rfemur 0 0 0
rtibia 0
rfoot 0 0
rtoes 0
lfemur -3.41666 -4.81636 -13.7777
ltibia 22.8502
lfoot -19.2246 8.44931
ltoes -56.575
346
root -0.529427 18.6638 5.32425 -2.77883 2.82402 -0.85264
lowerback 12.4502 -2.33415 1.90617
upperback 3.86392 -2.80255 1.21783
thorax -2.95081 -1.39219 0.607825
lowerneck -9.25667 -4.77358 -4.54152
upperneck 41.2634 -7.23438 2.28905
head 16.7471 -3.43631 0.643833
rclavicle 3.91109e-014 -7.95139e-015
rhumerus -75.8208 45.1444 -105.33
rradius 107.473
rwrist -29.5785
rhand 16.1666 -54.2038
rfingers 7.12502
rthumb 40.9486 -439.137
lclavicle 3.91109e-014 -7.95139e-015
lhumerus -56.8162 -60.6577 128.873
lradius 89.6325
lwrist 38.6645
lhand 17.7177 4.45349
lfingers 7.12502
lthumb 42.4034 28.9069
rfemur 0 0 0
rtibia 0
rfoot 0 0
rtoes 0
lfemur -3.50881 -4.7625 -13.7769
ltibia 22.864
lfoot -19.1863 8.43247
ltoes -56.6456
347
root -0.531967 18.665 5.3273 -2.65102 2.80952 -0.811532
lowerback 12.2832 -2.32914 1.85015
upperback 3.83059 -2.80768 1.21275
thorax -2.89249 -1.39489 0.628338
lowerneck -9.21314 -4.79093 -4.5532
upperneck 41.2394 -7.24623 2.25822
head 16.7223 -3.44829 0.631499
rclavicle 2.3059e-014 5.1684e-015
rhumerus -75.7251 45.1914 -105.378
rradius 107.313
rwrist -29.4511
rhand 15.9169 -54.4095
rfingers 7.12502
rthumb 40.714 -439.416
lclavicle 2.3059e-014 5.1684e-015
lhumerus -56.9318 -60.6334 128.983
lradius 89.5621
lwrist 38.647
lhand 17.2698 4.35417
lfingers 7.12502
lthumb 41.9837 28.9497
rfemur 0 0 0
rtibia 0
rfoot 0 0
rtoes 0
lfemur -3.6368 -4.71348 -13.7925
ltibia 22.8756
lfoot -19.186 8.3955
ltoes -56.6675
348
root -0.53087 18.6652 5.32604 -2.60765 2.81894 -0.829553
lowerback 12.2681 -2.33756 1.9217
upperback 3.80805 -2.81082 1.19576
thorax -2.91202 -1.39649 0.571062
lowerneck -9.14569 -4.81901 -4.56642
upperneck 41.2059 -7.29231 2.27197
head 16.6909 -3.46916 0.634313
rclavicle -2.15681e-014 1.74931e-014
rhumerus -75.6573 45.3031 -105.534
rradius 107.166
rwrist -29.0487
rhand 15.5967 -54.4793
rfingers 7.12502
rthumb 40.413 -439.579
lclavicle -2.15681e-014 1.74931e-014
lhumerus -57.0646 -60.6484 129.09
lradius 89.4913
lwrist 38.5818
lhand 16.9832 4.09231
lfingers 7.12502
lthumb 41.715 28.7771
rfemur 0 0 0
rtibia 0
rfoot 0 0
rtoes 0
lfemur -3.69935 -4.80055 -13.7793
ltibia 22.8957
lfoot -19.2387 8.43269
ltoes -56.6252
349
root -0.529364 18.6655 5.32435 -2.57046 2.83797 -0.841447
lowerback 12.2553 -2.35232 1.9689
upperback 3.79972 -2.82491 1.19389
thorax -2.91613 -1.40349 0.544443
lowerneck -9.11551 -4.83506 -4.63188
upperneck 41.1753 -7.32577 2.33698
head 16.6761 -3.48537 0.670044
rclavicle -1.2921e-014 1.39149e-014
rhumerus -75.6331 45.4768 -105.713
rradius 107.031
rwrist -28.5475
rhand 15.3997 -54.5395
rfingers 7.12502
rthumb 40.2278 -439.696
lclavicle -1.2921e-014 1.39149e-014
lhumerus -57.0366 -60.5955 129.061
lradius 89.4314
lwrist 38.5103
lhand 16.9376 3.96727
lfingers 7.12502
lthumb 41.6722 28.6662
rfemur 0 0 0
rtibia 0
rfoot 0 0
rtoes 0
lfemur -3.77595 -4.89306 -13.7754
ltibia 22.9541
lfoot -19.3067 8.46511
ltoes -56.5746
350
root -0.529202 18.6662 5.3237 -2.51661 2.91353 -0.950162
lowerback 12.1997 -2.38786 2.08215
upperback 3.79113 -2.85806 1.24175
thorax -2.89789 -1.42003 0.533412
lowerneck -9.15124 -4.84859 -4.70239
upperneck 41.1755 -7.34733 2.38721
head 16.6938 -3.49775 0.699982
rclavicle -2.4202e-014 1.63003e-014
rhumerus -75.6544 45.6091 -105.822
rradius 106.952
rwrist -28.1002
rhand 15.4009 -54.7066
rfingers 7.12502
rthumb 40.2289 -439.863
lclavicle -2.4202e-014 1.63003e-014
lhumerus -56.941 -60.5091 128.972
lradius 89.3714
lwrist 38.4962
lhand 16.995 3.95259
lfingers 7.12502
lthumb 41.7261 28.6337
rfemur 0 0 0
rtibia 0
rfoot 0 0
rtoes 0
lfemur -3.90122 -4.90584 -13.6433
ltibia 23.0275
lfoot -19.2923 8.39559
ltoes -56.5817
351
root -0.530178 18.6668 5.32358 -2.46811 3.05009 -1.21245
lowerback 12.1507 -2.44271 2.34688
upperback 3.7662 -2.89654 1.33172
thorax -2.90546 -1.43939 0.482899
lowerneck -9.16231 -4.88297 -4.78181
upperneck 41.1435 -7.41054 2.46969
head 16.6924 -3.525 0.739669
rclavicle -8.24956e-015 -1.90833e-014
rhumerus -75.7402 45.6418 -105.893
rradius 106.939
rwrist -27.822
rhand 15.434 -54.7727
rfingers 7.12502
rthumb 40.26 -439.92
lclavicle -8.24956e-015 -1.90833e-014
lhumerus -56.9348 -60.4234 128.931
lradius 89.3408
lwrist 38.5395
lhand 17.0077 3.94706
lfingers 7.12502
lthumb 41.738 28.6243
rfemur 0 0 0
rtibia 0
rfoot 0 0
rtoes 0
lfemur -4.04812 -4.83443 -13.3186
ltibia 23.0801
lfoot -19.1895 8.20907
ltoes -56.6383
